<svg width="1200" height="800" viewBox="0 0 1200 800" xmlns="http://www.w3.org/2000/svg">
  <defs>
    <linearGradient id="bg" x1="0" y1="0" x2="1" y2="1">
      <stop offset="0%" stop-color="#172554"/>
      <stop offset="100%" stop-color="#0f766e"/>
    </linearGradient>
  </defs>
  <rect width="1200" height="800" fill="url(#bg)"/>
  <g transform="translate(390 120)" fill="#e2e8f0">
    <rect x="40" y="80" width="26" height="420" rx="13"/>
    <rect x="10" y="20" width="16" height="120" rx="8"/>
    <rect x="30" y="20" width="16" height="120" rx="8"/>
    <rect x="50" y="20" width="16" height="120" rx="8"/>
    <rect x="70" y="20" width="16" height="120" rx="8"/>
    <rect x="180" y="40" width="36" height="470" rx="18"/>
    <path d="M280 40 C350 40 350 150 310 190 L310 520 L250 520 L250 190 C210 150 210 40 280 40Z"/>
  </g>
  <text x="60" y="740" fill="#f1f5f9" font-size="56" font-family="Arial, sans-serif" font-weight="700">CUTLERY</text>
</svg>
